Coordinates
version=1
nRows=29
nColumns=22
inDegrees=yes

Units are S.I. units (second, meters, Newtons, ...)
If the header above contains a line with 'inDegrees', this indicates whether rotational values are in degrees (yes) or radians (no).

endheader
time	pelvis_tilt	pelvis_list	pelvis_rotation	pelvis_tx	pelvis_ty	pelvis_tz	hip_flexion_r	hip_adduction_r	hip_rotation_r	knee_angle_r	ankle_angle_r	subtalar_angle_r	hip_flexion_l	hip_adduction_l	hip_rotation_l	knee_angle_l	ankle_angle_l	subtalar_angle_l	lumbar_extension	lumbar_bending	lumbar_rotation
      2.07000000	     -0.94832605	     -0.38464600	    132.51829664	     -0.37982882	      1.01400438	      0.57035385	     19.09962214	     -1.57378718	     -1.55347903	    -56.93471821	      4.94102978	     -3.13585815	      4.98656168	      1.72220702	     -1.41594982	    -16.49653585	     11.94743093	     -0.53907909	    -13.44463313	     -1.69655092	      1.08417246
      2.08000000	     -1.00610669	     -0.26311812	    132.12530188	     -0.38401948	      1.01409805	      0.56619390	     19.72064821	     -1.48364299	     -2.13182635	    -55.89988301	      5.38043118	     -2.81211117	      4.28173658	      1.69326581	     -1.86734375	    -16.19520826	     12.24377129	     -0.50691930	    -13.63293935	     -1.56485469	      0.70885079
      2.09000000	     -1.09322335	     -0.15038274	    131.73221452	     -0.38820806	      1.01413065	      0.56197861	     20.28893750	     -1.43251316	     -2.75099984	    -54.74692476	      5.86022240	     -2.50825710	      3.54303947	      1.70342514	     -2.31967740	    -15.86086772	     12.53383711	     -0.47271351	    -13.83626320	     -1.46420554	      0.33545219
      2.10000000	     -1.21245940	     -0.04562186	    131.32493549	     -0.39241965	      1.01410634	      0.55768598	     20.80309876	     -1.43223444	     -3.42272205	    -53.49214223	      6.37669342	     -2.25930827	      2.76550403	      1.75658092	     -2.78460637	    -15.49405859	     12.80974073	     -0.44396388	    -14.04940539	     -1.39708167	     -0.02579066
      2.11000000	     -1.36280493	      0.06622825	    130.88839792	     -0.39664456	      1.01406311	      0.55327648	     21.24690671	     -1.46556028	     -4.14259382	    -52.13678965	      6.90344474	     -2.08248155	      1.92804110	      1.84269362	     -3.26321405	    -15.07931772	     13.06985776	     -0.42312482	    -14.28182915	     -1.35524438	     -0.37489020
      2.12000000	     -1.53537369	      0.18431111	    130.41481697	     -0.40088492	      1.01399160	      0.54872880	     21.62718095	     -1.53003310	     -4.93210001	    -50.69218791	      7.43413996	     -2.00218155	      1.04223379	      1.95698699	     -3.76102534	    -14.62814414	     13.31598295	     -0.41315697	    -14.52112664	     -1.33801312	     -0.67599598
      2.13000000	     -1.71995422	      0.30991143	    129.90026157	     -0.40511559	      1.01388595	      0.54402982	     21.94914280	     -1.60886493	     -5.79394550	    -49.16519219	      7.95127965	     -2.01133246	      0.11969479	      2.09070766	     -4.27875562	    -14.15008039	     13.55417598	     -0.41116219	    -14.76118884	     -1.34059363	     -0.92022021
      2.14000000	     -1.90197950	      0.44636852	    129.35358142	     -0.40931857	      1.01374338	      0.53921944	     22.21751794	     -1.67526186	     -6.71876779	    -47.55635769	      8.43632859	     -2.08844491	     -0.81977771	      2.23102295	     -4.81845873	    -13.66025324	     13.78631651	     -0.41193614	    -15.00393978	     -1.34126899	     -1.13311123
      2.15000000	     -2.06265925	      0.58584939	    128.79262523	     -0.41345190	      1.01353080	      0.53429183	     22.45043763	     -1.71494025	     -7.73114454	    -45.87440690	      8.86868372	     -2.19559316	     -1.74162782	      2.36257197	     -5.36013256	    -13.18561044	     14.02184915	     -0.41197323	    -15.22748649	     -1.34018895	     -1.32315018
      2.16000000	     -2.19694668	      0.73168133	    128.24861184	     -0.41750958	      1.01325238	      0.52934015	     22.64996341	     -1.72761229	     -8.86514136	    -44.12789680	      9.22040772	     -2.30379351	     -2.62197364	      2.47585264	     -5.88660364	    -12.75764266	     14.23339294	     -0.40656798	    -15.44756623	     -1.32148209	     -1.48822789
      2.17000000	     -2.30297907	      0.86529942	    127.73993507	     -0.42148166	      1.01287729	      0.52441828	     22.83596974	     -1.71464047	    -10.10256783	    -42.32804662	      9.48258998	     -2.36946692	     -3.43729326	      2.57876625	     -6.37260059	    -12.38298388	     14.45722705	     -0.39700008	    -15.65328025	     -1.28960774	     -1.67339674
      2.18000000	     -2.37192188	      0.98570034	    127.29957431	     -0.42534578	      1.01238899	      0.51958160	     23.01656006	     -1.67456394	    -11.47603894	    -40.48604787	      9.64553397	     -2.34918144	     -4.15943070	      2.65504707	     -6.78879592	    -12.09666125	     14.71388563	     -0.38725034	    -15.84887219	     -1.23828947	     -1.88015910
      2.19000000	     -2.40775040	      1.08188656	    126.93145876	     -0.42912148	      1.01178429	      0.51484881	     23.19778847	     -1.61178683	    -12.96275699	    -38.60637409	      9.69381850	     -2.23154635	     -4.78321844	      2.71201836	     -7.13291318	    -11.89482761	     14.99991632	     -0.37641371	    -16.02724502	     -1.16886679	     -2.12472498
      2.20000000	     -2.41427065	      1.15252804	    126.63084370	     -0.43281190	      1.01106871	      0.51018194	     23.37379402	     -1.51670157	    -14.52229160	    -36.68870297	      9.63355270	     -2.01992044	     -5.31150120	      2.74765333	     -7.43399478	    -11.77904286	     15.30423453	     -0.36592237	    -16.18689563	     -1.08521389	     -2.43478362
      2.21000000	     -2.44002517	      1.24533785	    126.37865766	     -0.43643313	      1.01035304	      0.50552489	     23.47278792	     -1.40550345	    -16.16535551	    -34.74836006	      9.46942998	     -1.68345596	     -5.83426525	      2.77583055	     -7.69147107	    -11.72538909	     15.58336909	     -0.34446384	    -16.40446945	     -1.01029418	     -2.70693845
      2.22000000	     -2.45623752	      1.31667201	    126.16128315	     -0.44001393	      1.00955540	      0.50083448	     23.54930189	     -1.26105057	    -17.80156787	    -32.78581801	      9.20294779	     -1.23764082	     -6.29765458	      2.79862328	     -7.95451523	    -11.73323206	     15.86204097	     -0.32085785	    -16.60580709	     -0.93642759	     -3.03197483
      2.23000000	     -2.44990890	      1.35171677	    125.96974204	     -0.44354975	      1.00863105	      0.49606454	     23.63221593	     -1.08836087	    -19.44168900	    -30.82653691	      8.85618151	     -0.74959169	     -6.68415358	      2.81419617	     -8.18434662	    -11.80279308	     16.17411782	     -0.29799422	    -16.76336539	     -0.87383794	     -3.32362656
      2.24000000	     -2.44565445	      1.37204036	    125.77700528	     -0.44706982	      1.00764209	      0.49114986	     23.68224141	     -0.88272405	    -21.01834571	    -28.87011128	      8.45698749	     -0.21819085	     -7.04411532	      2.83402040	     -8.44007047	    -11.91185215	     16.47646308	     -0.26798331	    -16.90465429	     -0.82622022	     -3.61066111
      2.25000000	     -2.43810848	      1.37009981	    125.56474790	     -0.45057496	      1.00656497	      0.48602611	     23.71687996	     -0.64519531	    -22.51162244	    -26.94331360	      8.05578011	      0.30337452	     -7.38074543	      2.86023687	     -8.72327177	    -12.04334835	     16.78309892	     -0.22727307	    -17.01245633	     -0.80320718	     -3.85517874
      2.26000000	     -2.41917243	      1.33852516	    125.31368241	     -0.45409093	      1.00538456	      0.48064106	     23.74694536	     -0.36570779	    -23.85253824	    -25.05629973	      7.67757003	      0.75355266	     -7.69129565	      2.89354724	     -9.04843848	    -12.18825739	     17.10035063	     -0.17947545	    -17.06330557	     -0.79890783	     -4.06289843
      2.27000000	     -2.44010896	      1.33222770	    124.98998821	     -0.45762875	      1.00422454	      0.47490250	     23.70168669	     -0.05867482	    -25.02785363	    -23.24941794	      7.39401552	      1.20829490	     -8.08012178	      2.95210229	     -9.45428140	    -12.31427563	     17.35290451	     -0.07802998	    -17.13773124	     -0.83702647	     -4.16533758
      2.28000000	     -2.44885744	      1.30934931	    124.58593713	     -0.46121506	      1.00297844	      0.46876211	     23.64728023	      0.30429706	    -25.94950664	    -21.53106208	      7.19831818	      1.52237586	     -8.48269552	      3.01896642	     -9.92525377	    -12.41963092	     17.61287180	      0.04592836	    -17.14585922	     -0.88961585	     -4.19250372
      2.29000000	     -2.45735537	      1.28518479	    124.09033415	     -0.46485898	      1.00168117	      0.46219997	     23.56659282	      0.71845636	    -26.57046077	    -19.92901294	      7.08674897	      1.71678029	     -8.92163045	      3.09973699	    -10.47198168	    -12.50528942	     17.88330995	      0.18639536	    -17.10839946	     -0.95936941	     -4.12669269
      2.30000000	     -2.48114457	      1.28145051	    123.51757111	     -0.46860441	      1.00039668	      0.45521882	     23.43460453	      1.16283734	    -26.89025941	    -18.48415807	      7.08927638	      1.82818996	     -9.43244605	      3.19802072	    -11.07485544	    -12.55893729	     18.08377413	      0.37488591	    -17.05218290	     -1.03877933	     -3.97440092
      2.31000000	     -2.52494894	      1.33858146	    122.91816530	     -0.47245056	      0.99920954	      0.44792266	     23.19580544	      1.64026505	    -26.91029264	    -17.18098526	      7.17552524	      1.88138475	    -10.03239575	      3.28834113	    -11.65373051	    -12.61037222	     18.22740626	      0.68847111	    -17.03920312	     -1.09792978	     -3.76572255
      2.32000000	     -2.55432320	      1.38934048	    122.32756955	     -0.47638845	      0.99799473	      0.44044085	     22.95896353	      2.10836772	    -26.66001960	    -16.08842272	      7.24577264	      1.88574395	    -10.60084927	      3.36853621	    -12.21327309	    -12.72013241	     18.37746710	      0.98616935	    -16.98954604	     -1.13520691	     -3.55774492
      2.33000000	     -2.56637888	      1.44841707	    121.81030877	     -0.48040745	      0.99679861	      0.43291622	     22.71116339	      2.55183723	    -26.20606274	    -15.21282094	      7.27833728	      1.86900880	    -11.12646756	      3.41230092	    -12.67375350	    -12.91413983	     18.51095117	      1.31448939	    -16.93925689	     -1.12561072	     -3.40375010
      2.34000000	     -2.52119229	      1.45901458	    121.39228332	     -0.48446913	      0.99550910	      0.42546418	     22.54832510	      2.95603008	    -25.59412308	    -14.59068219	      7.18755952	      1.84907226	    -11.50706175	      3.40470062	    -12.99087901	    -13.23266742	     18.67028431	      1.52536695	    -16.81965116	     -1.05946546	     -3.31597833
      2.35000000	     -2.46840956	      1.53605051	    121.11518611	     -0.48857387	      0.99436084	      0.41808921	     22.33074856	      3.32510483	    -24.93783180	    -14.21668681	      6.99603274	      1.74681277	    -11.87641824	      3.30630255	    -13.19433765	    -13.67355177	     18.79318624	      2.02243009	    -16.78327417	     -0.91491310	     -3.36470945
